<?xml version="1.0" encoding="UTF-8" standalone="no"?>
<svg
   xmlns:dc="http://purl.org/dc/elements/1.1/"
   xmlns:cc="http://creativecommons.org/ns#"
   xmlns:rdf="http://www.w3.org/1999/02/22-rdf-syntax-ns#"
   xmlns:svg="http://www.w3.org/2000/svg"
   xmlns="http://www.w3.org/2000/svg"
   xmlns:sodipodi="http://sodipodi.sourceforge.net/DTD/sodipodi-0.dtd"
   xmlns:inkscape="http://www.inkscape.org/namespaces/inkscape"
   version="1.1"
   id="svg2"
   xml:space="preserve"
   width="3717.4534"
   height="3717.4534"
   viewBox="0 0 3717.4534 3717.4534"
   sodipodi:docname="Dial compressed low.ai"><metadata
     id="metadata8"><rdf:RDF><cc:Work
         rdf:about=""><dc:format>image/svg+xml</dc:format><dc:type
           rdf:resource="http://purl.org/dc/dcmitype/StillImage" /></cc:Work></rdf:RDF></metadata><defs
     id="defs6"><clipPath
       clipPathUnits="userSpaceOnUse"
       id="clipPath18"><path
         d="M 0,2788.085 H 2788.085 V 0 H 0 Z"
         id="path16" /></clipPath><linearGradient
       x1="0"
       y1="0"
       x2="1"
       y2="0"
       gradientUnits="userSpaceOnUse"
       gradientTransform="matrix(2624.8445,0,0,-2624.8445,83.003311,1328.4595)"
       spreadMethod="pad"
       id="linearGradient40"><stop
         style="stop-opacity:1;stop-color:#ffffff"
         offset="0"
         id="stop36" /><stop
         style="stop-opacity:1;stop-color:#ffffff"
         offset="1"
         id="stop38" /></linearGradient><clipPath
       clipPathUnits="userSpaceOnUse"
       id="clipPath50"><path
         d="M 0,2788.085 H 2788.085 V 0 H 0 Z"
         id="path48" /></clipPath><clipPath
       clipPathUnits="userSpaceOnUse"
       id="clipPath82"><path
         d="M 0,2788.085 H 2788.085 V 0 H 0 Z"
         id="path80" /></clipPath><clipPath
       clipPathUnits="userSpaceOnUse"
       id="clipPath94"><path
         d="M 0,2788.085 H 2788.085 V 0 H 0 Z"
         id="path92" /></clipPath></defs><sodipodi:namedview
     pagecolor="#ffffff"
     bordercolor="#666666"
     borderopacity="1"
     objecttolerance="10"
     gridtolerance="10"
     guidetolerance="10"
     inkscape:pageopacity="0"
     inkscape:pageshadow="2"
     inkscape:window-width="640"
     inkscape:window-height="480"
     id="namedview4" /><g
     id="g10"
     inkscape:groupmode="layer"
     inkscape:label="Dial compressed low"
     transform="matrix(1.3333333,0,0,-1.3333333,0,3717.4533)"><g
       id="g12"><g
         id="g14"
         clip-path="url(#clipPath18)"><g
           id="g20"
           transform="translate(2779.4343,672.2484)"><path
             d="m 0,0 h -2768.018 c 0,764.364 619.645,1384.009 1384.009,1384.009 C -619.646,1384.009 0,764.364 0,0"
             style="fill:#7c848a;fill-opacity:1;fill-rule:nonzero;stroke:none"
             id="path22" /></g></g></g><g
       id="g24"><g
         id="g26"><g
           id="g32"><g
             id="g34"><path
               d="m 83.003,672.249 h 2624.844 c 0,724.832 -587.589,1312.422 -1312.421,1312.422 v 0 C 670.594,1984.671 83.003,1397.081 83.003,672.249"
               style="fill:url(#linearGradient40);stroke:none"
               id="path42" /></g></g></g></g><g
       id="g44"><g
         id="g46"
         clip-path="url(#clipPath50)"><g
           id="g52"
           transform="translate(783.9846,1024.6937)"><path
             d="m 0,0 c -59.917,-103.71 -94.199,-224.066 -94.199,-352.445 h -339.753 c 0,190.272 50.838,368.671 139.662,522.355 z"
             style="fill:#27a93e;fill-opacity:1;fill-rule:nonzero;stroke:none"
             id="path54" /></g><g
           id="g56"
           transform="translate(1042.3103,1283.3031)"><path
             d="m 0,0 c -107.119,-62.02 -196.42,-151.411 -258.326,-258.609 l -294.289,169.91 c 91.744,158.752 224.032,291.119 382.704,382.989 z"
             style="fill:#80c32c;fill-opacity:1;fill-rule:nonzero;stroke:none"
             id="path58" /></g><g
           id="g60"
           transform="translate(1395.5393,1717.641)"><path
             d="m 0,0 v -339.753 h -0.114 c -128.651,0 -249.258,-34.43 -353.115,-94.585 l -169.911,294.29 C -369.308,-50.986 -190.659,0 -0.114,0 Z"
             style="fill:#c9d81d;fill-opacity:1;fill-rule:nonzero;stroke:none"
             id="path62" /></g><g
           id="g64"
           transform="translate(1918.531,1577.5355)"><path
             d="m 0,0 -169.899,-294.278 c -103.846,60.167 -224.453,94.608 -353.093,94.631 V 140.105 C -332.446,140.083 -153.82,89.086 0,0"
             style="fill:#fedc10;fill-opacity:1;fill-rule:nonzero;stroke:none"
             id="path66" /></g><g
           id="g68"
           transform="translate(2301.1785,1194.5472)"><path
             d="M 0,0 -294.278,-169.899 C -356.172,-62.713 -445.45,26.669 -552.547,88.71 l 169.9,294.278 C -223.986,291.13 -91.722,158.752 0,0"
             style="fill:#f69a0c;fill-opacity:1;fill-rule:nonzero;stroke:none"
             id="path70" /></g><g
           id="g72"
           transform="translate(2440.8181,672.2484)"><path
             d="m 0,0 h -339.753 c 0,128.355 -34.27,248.701 -94.165,352.399 l 294.278,169.9 C -50.826,368.626 0,190.25 0,0"
             style="fill:#e42d03;fill-opacity:1;fill-rule:nonzero;stroke:none"
             id="path74" /></g></g></g><g
       id="g76"><g
         id="g78"
         clip-path="url(#clipPath82)"><g
           id="g84"
           transform="translate(437.6863,983.9886)"><path
             d="m 0,0 v 0 c -2.919,-8.784 -0.289,-17.645 5.937,-20.004 l 989.525,-375.069 36.746,110.582 L 16.772,12.46 C 10.366,14.333 2.926,8.807 0,0"
             style="fill:#3f3e42;fill-opacity:1;fill-rule:nonzero;stroke:none"
             id="path86" /></g></g></g><g
       id="g88"><g
         id="g90"
         clip-path="url(#clipPath94)"><g
           id="g96"
           transform="translate(1434.8337,737.7943)"><path
             d="m 0,0 c 40.497,-13.457 62.417,-57.195 48.96,-97.692 -13.457,-40.496 -57.194,-62.417 -97.691,-48.96 -40.497,13.457 -62.417,57.195 -48.96,97.691 C -84.235,-8.464 -40.497,13.456 0,0"
             style="fill:#3f3e42;fill-opacity:1;fill-rule:nonzero;stroke:none"
             id="path98" /></g></g></g></g></svg>
