<?xml version="1.0" standalone="no"?>
<!DOCTYPE svg PUBLIC "-//W3C//DTD SVG 20010904//EN"
 "http://www.w3.org/TR/2001/REC-SVG-20010904/DTD/svg10.dtd">
<svg version="1.0" xmlns="http://www.w3.org/2000/svg"
 width="800.000000pt" height="800.000000pt" viewBox="0 0 800.000000 800.000000"
 preserveAspectRatio="xMidYMid meet">
<metadata>
Created by potrace 1.14, written by Peter Selinger 2001-2017
</metadata>
<g transform="translate(0.000000,800.000000) scale(0.100000,-0.100000)"
fill="#000000" stroke="none">
<path d="M4435 7985 c-21 -8 -41 -12 -43 -10 -2 2 -22 -7 -44 -21 -22 -14 -46
-23 -54 -20 -24 9 -238 20 -389 20 -141 -1 -300 -18 -322 -37 -7 -5 -13 -7
-13 -4 0 3 -19 -1 -42 -8 -24 -7 -95 -13 -158 -14 -63 -1 -131 -4 -150 -7
-141 -20 -235 -46 -315 -87 -22 -12 -42 -21 -45 -22 -8 -1 -52 -27 -64 -37 -6
-4 -42 -32 -79 -61 -37 -28 -89 -69 -115 -90 -26 -20 -65 -45 -87 -55 -68 -29
-306 -151 -335 -172 -16 -11 -31 -20 -33 -20 -3 0 -43 -25 -89 -57 -78 -53
-95 -65 -165 -120 -15 -13 -32 -23 -36 -23 -5 0 -5 -4 -2 -10 3 -5 2 -10 -3
-10 -20 0 -169 -142 -243 -232 -24 -29 -52 -62 -62 -73 -38 -42 -139 -197
-183 -282 -25 -48 -51 -97 -57 -108 -6 -11 -12 -22 -12 -25 -1 -3 -7 -18 -13
-33 -7 -16 -12 -34 -12 -42 0 -7 -3 -15 -7 -17 -8 -3 -60 -156 -67 -195 -2
-10 -9 -36 -15 -58 -6 -22 -12 -51 -15 -65 -2 -14 -5 -25 -6 -25 -1 0 -3 -13
-5 -30 -2 -16 -6 -43 -9 -60 -9 -48 -16 -116 -21 -175 -2 -30 -6 -66 -8 -80
-3 -14 -8 -49 -11 -79 -4 -30 -8 -64 -11 -75 -2 -12 -7 -46 -10 -76 -4 -30 -8
-68 -10 -85 -27 -224 -22 -529 9 -665 3 -14 8 -42 11 -64 3 -21 8 -42 11 -47
3 -5 7 -17 9 -26 9 -45 74 -223 85 -233 3 -3 17 -33 30 -67 14 -35 27 -63 31
-63 3 0 6 -6 6 -12 0 -18 179 -382 258 -523 98 -177 114 -204 156 -269 22 -32
39 -60 39 -62 0 -3 66 -104 148 -225 81 -121 152 -228 157 -237 6 -9 12 -19
15 -22 3 -3 65 -95 139 -205 143 -212 361 -522 417 -592 19 -23 34 -46 34 -51
0 -6 3 -12 8 -14 4 -2 30 -34 57 -71 28 -37 58 -78 68 -90 10 -12 26 -34 35
-50 9 -15 20 -27 24 -27 4 0 8 -6 8 -13 0 -7 9 -18 20 -25 11 -7 20 -19 20
-26 0 -8 4 -16 8 -18 4 -1 21 -21 37 -43 37 -49 107 -140 140 -180 13 -16 41
-52 61 -80 21 -27 43 -56 51 -63 20 -20 55 -103 60 -141 4 -36 33 -84 67 -114
39 -33 182 -91 213 -86 4 1 10 1 13 -1 36 -13 240 -19 300 -8 103 18 166 67
174 136 2 15 4 30 5 34 0 3 25 21 54 38 62 37 75 44 147 90 30 19 72 44 93 55
20 11 37 23 37 27 0 5 4 8 9 8 9 0 335 199 356 217 6 5 26 18 45 29 19 10 37
21 40 24 3 3 37 26 75 50 39 25 79 53 89 62 11 10 24 18 29 18 8 0 28 14 84
60 7 6 15 10 18 10 4 0 136 95 185 133 9 7 35 26 60 42 25 17 51 35 60 42 8 7
47 35 85 62 110 79 117 85 146 109 15 12 32 22 38 22 6 0 11 3 11 8 0 4 27 27
61 52 33 24 70 52 82 63 12 10 32 27 45 38 12 10 24 19 27 19 5 0 17 10 70 58
17 15 47 39 65 53 19 15 47 37 61 50 14 13 45 41 70 62 135 114 358 332 474
462 39 43 77 85 85 94 8 9 50 61 93 116 43 55 84 107 90 115 12 16 109 162
142 215 110 177 213 446 241 632 3 21 8 52 11 68 2 17 6 39 8 50 3 25 18 118
21 128 1 4 2 16 3 27 2 41 18 18 17 -25 -1 -25 2 -45 7 -45 4 0 7 7 7 15 0 19
-5 -2 35 155 9 36 19 79 22 95 3 17 9 38 14 48 5 9 8 17 5 17 -3 0 0 15 5 33
5 17 11 46 14 62 2 17 7 51 10 77 18 131 22 223 20 433 -2 127 -6 248 -9 270
-4 22 -9 51 -11 65 -2 14 -6 34 -8 45 -3 11 -11 48 -17 83 -7 34 -17 65 -21
68 -5 3 -9 16 -9 30 0 13 -4 32 -9 42 -5 9 -25 55 -46 102 -20 47 -46 101 -59
120 -13 19 -31 60 -41 90 -31 97 -153 360 -167 360 -4 0 -8 6 -8 13 0 10 -71
124 -102 162 -72 90 -116 142 -128 152 -21 17 -4 16 32 -3 16 -9 28 -12 26 -7
-3 4 -17 33 -32 64 -58 120 -203 245 -371 317 -73 32 -145 76 -153 95 -2 4 -9
7 -17 7 -7 0 -18 7 -25 15 -6 8 -53 38 -103 67 -89 52 -117 66 -174 89 -16 6
-36 15 -45 20 -9 4 -46 14 -82 20 -57 11 -72 18 -115 60 -73 70 -138 99 -236
104 -30 1 -123 -23 -160 -42 -17 -9 -25 -4 -55 32 -57 68 -136 122 -220 150
-52 17 -129 25 -136 13 -3 -4 -10 -6 -15 -2 -10 6 -40 -4 -107 -33 -33 -14
-35 -14 -73 16 -21 17 -60 41 -86 52 -61 27 -191 34 -248 14z"/>
<path d="M3274 789 c-50 -19 -75 -39 -105 -80 -17 -25 -23 -46 -34 -116 -3
-18 -7 -48 -10 -65 -3 -18 -7 -44 -9 -58 -8 -42 -17 -104 -22 -135 -2 -16 -5
-45 -8 -63 -15 -105 89 -208 228 -227 27 -3 52 -8 55 -9 3 -2 29 -6 56 -10 28
-3 61 -8 75 -11 101 -22 195 -11 255 28 54 35 75 76 90 182 11 74 14 90 15 90
1 0 3 14 5 30 5 38 15 102 21 135 21 118 -17 199 -117 251 -36 18 -56 23 -129
35 -19 3 -46 7 -60 10 -14 2 -43 7 -65 9 -22 3 -53 8 -70 12 -60 12 -126 9
-171 -8z"/>
</g>
</svg>
