<?xml version="1.0" standalone="no"?>
<!DOCTYPE svg PUBLIC "-//W3C//DTD SVG 20010904//EN"
 "http://www.w3.org/TR/2001/REC-SVG-20010904/DTD/svg10.dtd">
<svg version="1.0" xmlns="http://www.w3.org/2000/svg"
 width="700.000000pt" height="700.000000pt" viewBox="0 0 700.000000 700.000000"
 preserveAspectRatio="xMidYMid meet">
<metadata>
Created by potrace 1.14, written by Peter Selinger 2001-2017
</metadata>
<g transform="translate(0.000000,700.000000) scale(0.100000,-0.100000)"
fill="#000000" stroke="none">
<path d="M4017 5453 c-2 -5 -5 -38 -6 -75 l-2 -68 229 0 229 0 47 -52 46 -51
-19 -31 c-10 -17 -34 -60 -54 -96 l-35 -65 35 -120 c19 -66 43 -151 53 -190
11 -38 26 -91 33 -117 l15 -47 -937 0 -937 0 -15 41 -16 42 111 28 c132 33
275 87 339 128 38 24 47 35 47 59 0 55 -20 59 -440 77 -74 3 -162 7 -195 9
-138 8 -415 19 -473 18 -96 -2 -116 -34 -65 -102 73 -97 168 -156 303 -186
115 -26 111 -23 148 -124 l33 -91 -217 -268 c-119 -147 -219 -269 -220 -271
-2 -2 -52 19 -111 47 -97 45 -227 90 -308 106 -16 4 -41 9 -55 11 -188 37
-448 20 -643 -42 -468 -147 -819 -540 -914 -1023 -25 -125 -24 -378 2 -500 2
-14 7 -36 10 -49 13 -65 62 -196 106 -285 65 -131 145 -241 251 -347 313 -313
739 -448 1183 -374 338 56 675 276 876 571 71 106 133 232 165 336 10 33 23
58 31 58 11 0 312 -53 373 -65 8 -2 18 -4 21 -4 4 -1 12 -15 19 -31 7 -16 15
-30 19 -30 3 0 21 -13 39 -28 l33 -27 -25 -115 c-14 -63 -27 -126 -29 -140
-11 -56 -20 -80 -31 -81 -6 -1 -27 -2 -46 -3 -34 -1 -35 -2 -38 -48 l-4 -48
59 -1 c32 0 97 -3 146 -5 l87 -5 0 49 c0 48 -1 49 -31 50 -17 0 -33 2 -35 4
-1 2 16 77 40 167 l42 164 50 22 c90 40 131 105 121 191 -4 35 0 48 17 67 22
25 65 73 131 148 53 59 185 207 210 235 22 24 111 125 145 164 12 14 38 43 58
65 33 36 107 120 198 224 16 18 43 48 59 65 17 18 59 66 95 106 76 86 159 180
174 196 15 15 131 147 186 210 25 29 47 53 50 53 3 1 18 -34 32 -76 l27 -78
-80 -74 c-186 -171 -324 -399 -388 -641 -36 -135 -47 -226 -44 -362 16 -738
627 -1319 1368 -1303 122 3 180 11 315 46 136 34 336 129 445 211 100 75 234
210 299 302 51 72 164 283 170 317 1 8 10 38 20 66 39 115 56 250 52 418 -4
173 -16 247 -67 397 -127 377 -424 680 -804 821 -242 90 -502 105 -768 46 -87
-19 -244 -74 -285 -100 -12 -7 -24 -11 -26 -8 -6 6 -45 111 -262 706 l-124
342 60 101 c68 116 70 98 -21 195 -31 33 -80 86 -109 118 l-52 57 -259 0
c-142 0 -260 -3 -262 -7z m656 -1187 c14 -41 14 -46 -1 -64 -9 -10 -48 -53
-85 -94 -37 -42 -77 -87 -88 -99 -11 -13 -37 -42 -57 -64 -101 -112 -259 -289
-282 -315 -21 -24 -143 -161 -155 -174 -5 -6 -46 -51 -90 -101 -96 -107 -141
-158 -175 -195 -14 -15 -36 -40 -50 -56 -116 -131 -218 -244 -242 -268 l-30
-30 6 40 c3 21 7 58 8 82 2 41 12 49 51 43 11 -2 26 43 22 65 -2 11 -4 22 -4
25 -1 3 -56 6 -123 5 l-121 -1 -4 -47 c-4 -45 -3 -47 24 -50 15 -2 27 -7 27
-13 -1 -5 -5 -37 -9 -70 -3 -33 -8 -61 -10 -63 -1 -2 -112 327 -245 730 -134
403 -245 739 -248 746 -3 9 187 12 931 12 l935 0 15 -44z m-1888 -731 c114
-346 229 -696 256 -777 27 -80 49 -151 49 -156 0 -6 -15 -9 -32 -7 -43 5 -125
13 -213 21 -38 4 -77 8 -85 9 -8 2 -31 4 -51 4 l-35 1 0 113 c3 393 -114 695
-376 972 l-67 71 32 34 c18 19 77 89 131 155 55 66 109 130 120 141 12 12 28
31 36 43 8 11 17 17 21 13 4 -4 100 -290 214 -637z m-1245 281 c109 -17 229
-53 313 -93 l58 -28 -64 -85 c-36 -47 -167 -220 -291 -385 -194 -256 -233
-302 -263 -313 -67 -23 -103 -73 -103 -140 0 -79 79 -149 155 -136 58 9 104 6
165 -11 8 -2 31 -6 50 -9 19 -3 44 -8 55 -10 11 -2 117 -23 235 -45 118 -23
226 -44 240 -46 54 -11 77 -15 130 -25 167 -31 162 -29 154 -53 -101 -338
-395 -623 -739 -718 -95 -26 -92 -25 -180 -35 -482 -54 -945 226 -1125 680
-171 433 -40 930 324 1222 250 201 555 280 886 230z m4343 -7 c319 -69 585
-267 736 -549 54 -101 94 -213 108 -305 3 -16 8 -49 12 -71 9 -47 7 -227 -3
-294 -32 -213 -145 -430 -305 -591 -320 -320 -785 -409 -1199 -231 -310 134
-549 417 -623 739 -6 26 -13 57 -16 68 -13 52 -11 284 3 363 36 203 134 398
271 542 l62 65 16 -40 c112 -272 249 -459 479 -650 62 -52 96 -87 96 -100 0
-28 34 -81 64 -100 38 -25 89 -26 136 -3 98 49 101 196 4 242 -19 9 -51 24
-71 34 -33 15 -264 234 -304 287 -77 104 -131 206 -189 356 l-39 104 24 20
c37 30 203 93 303 114 118 26 316 25 435 0z m-3735 -293 c131 -141 209 -294
243 -480 20 -108 35 -346 22 -346 -7 0 -72 10 -148 24 -42 7 -282 46 -325 52
-19 3 -42 7 -50 9 -8 2 -35 7 -60 10 -25 3 -67 10 -95 15 -27 5 -75 12 -105
16 -30 4 -58 9 -62 10 -5 1 -19 2 -33 3 -14 0 -25 4 -25 9 0 6 75 108 142 193
15 19 57 72 93 119 36 47 74 95 83 107 9 12 69 89 132 172 63 82 118 150 121
150 4 1 34 -28 67 -63z"/>
</g>
</svg>
