<?xml version="1.0" encoding="iso-8859-1"?>
<!-- Generator: Adobe Illustrator 25.2.0, SVG Export Plug-In . SVG Version: 6.00 Build 0)  -->
<svg version="1.1" baseProfile="tiny" id="Layer_1" xmlns="http://www.w3.org/2000/svg" xmlns:xlink="http://www.w3.org/1999/xlink"
	 x="0px" y="0px" viewBox="0 0 593.4 594.4" overflow="visible" xml:space="preserve">
<g>
	<path fill-rule="evenodd" fill="#7F7F7F" d="M300.1,428.8c4.3-2,13.4-8.3,13.4-8.3C464.4,332.4,464.4,280.7,467,264.2
		c1.9-12,17.9-83.4-22-128c-34.2-38.2-54-36-54-36s-12.1,6-21.3-5.5c-8.4-10.4-19.7-12.6-28-5.9c-6.8,5.5-17.5-2.9-25.7-3.6
		c-35-3.1-33.5,2.7-43.5,2.4c-28.3-0.9-36.4,14.5-43.5,17.6c-18.4,7.9-66.3,31.7-70.3,93c-0.6,8.5-8.7,41.3,2.4,67.1
		c17.8,41.4,32.1,60.1,51.3,88.8s46.7,63.5,46.7,63.5s3.1,3.4,3.2,4.8c0.2,3.3,9.8,6.1,21.5,7.7
		C290.1,430.9,294.6,431.4,300.1,428.8L300.1,428.8z"/>
	<path fill-rule="evenodd" d="M469,264.3c-2.6-84.1-62.8-110.5-119-141c-56.1-6.3-97.2,12.7-128,42c-22.8,21.7-43.7,53.6-44,90
		c-0.3,41.4,19.2,73.9,38,101c-25.1-32.1-61-80.4-59-134c1-27.9,18.7-57.4,34-72c9.8-9.4,25.9-17.9,41-25c34-16.1,75.3-13.4,115-3
		c-27-18-76.5-32.4-116-17c28.1-34,94.5-12.8,116,14c-5.1-15.9-13.4-28.6-29-34c22.9-11.5,35,10.9,34,33c3.9-15.9,26.8-36.5,41-18
		c-15.2,4.8-27.6,12.4-39,21c27.2-15.9,82.4-14.7,93,15c-19.8-11.9-57.9-20.7-92-13c59.8,10.6,120.2,22.3,121,90
		C476.4,242.9,471.1,249.7,469,264.3z"/>
	<path fill-rule="evenodd" d="M301.2,433.3c0.4-1-2.5-0.5,0.9-4.4c58.1-36.4,136.3-75.2,128.9-171.6c-2.6-33.2-19.3-58.2-35-81
		c-13.2-19.1-30.1-41.6-46-53c12.7,39.3,31,89.4,26,143c-2.8,30.5-17.4,61.4-30,87c-5.9,11.9-43.1,90.3-63,75
		c6.8-107.9,5-232.1,55.9-294.2c1.8-2.2,7-6,11.2-10.8c-33.7,9.4-64.2,22-85,44c-21.2,22.4-39.1,62.1-41,100c-1.7,34.6,8,59.5,16,87
		c6.5,22.3,26.7,68.1,27.3,72C267.9,429.7,299.5,437.3,301.2,433.3L301.2,433.3z"/>
	<path fill-rule="evenodd" d="M294.3,473.6c-0.8,5.4-6.8,9-13.4,8l-13.8-2.2c-6.5-1-11.2-6.2-10.3-11.7l2.8-18c0.8-5.4,6.8-9,13.4-8
		l13.8,2.2c6.5,1,11.2,6.2,10.3,11.7L294.3,473.6z"/>
	
		<ellipse transform="matrix(0.1618 -0.9868 0.9868 0.1618 -213.3332 653.9871)" fill-rule="evenodd" fill="#FFFFFF" cx="278.3" cy="452.6" rx="7" ry="15.4"/>
	<path fill-rule="evenodd" fill="#989898" d="M302.1,428.8c0,0,3.3,11.2-21.3,8.4c-21.7-2.5-16.6-14.9-16.6-14.9
		C276.9,429.1,287.2,428.9,302.1,428.8L302.1,428.8z"/>
</g>
<g>
	<rect x="86" y="512.4" fill-rule="evenodd" fill="none" width="407" height="64"/>
	<path d="M183,551.7v4.9h-24.4v-43h5.8v38.1H183z"/>
	<path d="M198.8,525.8c2.2,0,4.2,0.4,6,1.1c1.8,0.7,3.3,1.8,4.6,3.1c1.3,1.4,2.2,3,2.9,4.9c0.7,1.9,1,4.1,1,6.5c0,2.4-0.3,4.6-1,6.5
		c-0.7,1.9-1.6,3.6-2.9,4.9c-1.3,1.4-2.8,2.4-4.6,3.1c-1.8,0.7-3.8,1.1-6,1.1c-2.2,0-4.3-0.4-6-1.1c-1.8-0.7-3.3-1.8-4.6-3.1
		c-1.3-1.4-2.2-3-2.9-4.9c-0.7-1.9-1-4.1-1-6.5c0-2.4,0.3-4.5,1-6.5c0.7-1.9,1.6-3.6,2.9-4.9c1.3-1.4,2.8-2.4,4.6-3.1
		C194.5,526.1,196.5,525.8,198.8,525.8z M198.8,552.9c3,0,5.2-1,6.7-3c1.5-2,2.2-4.8,2.2-8.4c0-3.6-0.7-6.4-2.2-8.5
		c-1.5-2-3.7-3-6.7-3c-1.5,0-2.8,0.3-4,0.8c-1.1,0.5-2.1,1.3-2.8,2.2c-0.8,1-1.3,2.2-1.7,3.6c-0.4,1.4-0.6,3-0.6,4.8
		c0,3.6,0.7,6.4,2.2,8.4C193.4,551.9,195.7,552.9,198.8,552.9z"/>
	<path d="M225,530.6c0.7-0.7,1.4-1.4,2.1-2c0.7-0.6,1.5-1.1,2.4-1.5c0.8-0.4,1.7-0.8,2.6-1c0.9-0.2,1.9-0.3,3-0.3
		c1.7,0,3.1,0.3,4.4,0.8s2.3,1.3,3.2,2.3c0.8,1,1.5,2.2,1.9,3.6c0.4,1.4,0.7,3,0.7,4.7v19.3h-5.4v-19.3c0-2.3-0.5-4.1-1.6-5.4
		c-1-1.3-2.6-1.9-4.8-1.9c-1.6,0-3.1,0.4-4.4,1.1c-1.4,0.8-2.6,1.8-3.8,3.1v22.4H220v-30.4h3.2c0.8,0,1.2,0.4,1.4,1.1L225,530.6z"/>
	<path d="M278.6,512.4v44.2h-3.2c-0.8,0-1.2-0.4-1.4-1.1l-0.5-3.7c-1.3,1.6-2.8,2.8-4.4,3.8c-1.7,1-3.6,1.4-5.8,1.4
		c-1.7,0-3.3-0.3-4.7-1s-2.6-1.7-3.6-3c-1-1.3-1.8-2.9-2.3-4.9c-0.5-1.9-0.8-4.2-0.8-6.7c0-2.2,0.3-4.3,0.9-6.3
		c0.6-1.9,1.5-3.6,2.6-5c1.1-1.4,2.5-2.5,4.1-3.3c1.6-0.8,3.5-1.2,5.5-1.2c1.9,0,3.5,0.3,4.8,0.9s2.5,1.5,3.6,2.6v-16.8H278.6z
		 M273.2,533.5c-1-1.3-2.1-2.3-3.2-2.8c-1.2-0.5-2.5-0.8-3.9-0.8c-2.8,0-5,1-6.5,3c-1.5,2-2.3,4.9-2.3,8.6c0,2,0.2,3.7,0.5,5.1
		c0.3,1.4,0.8,2.6,1.5,3.5c0.7,0.9,1.5,1.6,2.4,2s2,0.6,3.3,0.6c1.8,0,3.3-0.4,4.6-1.2c1.3-0.8,2.5-1.9,3.6-3.4V533.5z"/>
	<path d="M299.9,525.8c2.2,0,4.2,0.4,6,1.1s3.3,1.8,4.6,3.1c1.3,1.4,2.2,3,2.9,4.9c0.7,1.9,1,4.1,1,6.5c0,2.4-0.3,4.6-1,6.5
		c-0.7,1.9-1.6,3.6-2.9,4.9c-1.3,1.4-2.8,2.4-4.6,3.1c-1.8,0.7-3.8,1.1-6,1.1c-2.2,0-4.3-0.4-6-1.1c-1.8-0.7-3.3-1.8-4.6-3.1
		s-2.2-3-2.9-4.9c-0.7-1.9-1-4.1-1-6.5c0-2.4,0.3-4.5,1-6.5c0.7-1.9,1.6-3.6,2.9-4.9c1.3-1.4,2.8-2.4,4.6-3.1
		S297.6,525.8,299.9,525.8z M299.9,552.9c3,0,5.2-1,6.7-3c1.5-2,2.2-4.8,2.2-8.4c0-3.6-0.7-6.4-2.2-8.5c-1.5-2-3.7-3-6.7-3
		c-1.5,0-2.8,0.3-4,0.8c-1.1,0.5-2.1,1.3-2.8,2.2c-0.8,1-1.3,2.2-1.7,3.6c-0.4,1.4-0.6,3-0.6,4.8c0,3.6,0.7,6.4,2.2,8.4
		C294.5,551.9,296.8,552.9,299.9,552.9z"/>
	<path d="M326.1,530.6c0.7-0.7,1.4-1.4,2.1-2c0.7-0.6,1.5-1.1,2.4-1.5c0.8-0.4,1.7-0.8,2.6-1c0.9-0.2,1.9-0.3,3-0.3
		c1.7,0,3.1,0.3,4.4,0.8c1.3,0.5,2.3,1.3,3.2,2.3c0.8,1,1.5,2.2,1.9,3.6c0.4,1.4,0.7,3,0.7,4.7v19.3H341v-19.3
		c0-2.3-0.5-4.1-1.6-5.4c-1.1-1.3-2.6-1.9-4.8-1.9c-1.6,0-3.1,0.4-4.4,1.1s-2.6,1.8-3.8,3.1v22.4h-5.4v-30.4h3.2
		c0.8,0,1.2,0.4,1.4,1.1L326.1,530.6z"/>
	<path d="M390.7,556.6h-4.5c-0.5,0-0.9-0.1-1.3-0.4s-0.6-0.6-0.7-1l-4-10.4H361l-4,10.4c-0.1,0.4-0.3,0.7-0.7,1
		c-0.3,0.3-0.8,0.4-1.3,0.4h-4.5l17.2-43h5.9L390.7,556.6z M378.6,540.7l-6.8-17.5c-0.2-0.5-0.4-1.1-0.6-1.8
		c-0.2-0.7-0.4-1.4-0.6-2.2c-0.4,1.6-0.8,3-1.3,4l-6.8,17.5H378.6z"/>
	<path d="M401.9,516.7c0,0.5-0.1,1-0.3,1.5c-0.2,0.4-0.5,0.8-0.8,1.2c-0.4,0.4-0.8,0.6-1.2,0.8c-0.5,0.2-1,0.3-1.5,0.3
		c-0.5,0-1-0.1-1.5-0.3c-0.4-0.2-0.8-0.5-1.2-0.8c-0.3-0.3-0.6-0.8-0.8-1.2c-0.2-0.5-0.3-0.9-0.3-1.5c0-0.5,0.1-1,0.3-1.5
		c0.2-0.5,0.5-0.9,0.8-1.2c0.3-0.4,0.7-0.6,1.2-0.8c0.5-0.2,0.9-0.3,1.5-0.3c0.5,0,1,0.1,1.5,0.3s0.9,0.5,1.2,0.8
		c0.3,0.3,0.6,0.8,0.8,1.2S401.9,516.2,401.9,516.7z M400.8,526.2v30.4h-5.3v-30.4H400.8z"/>
	<path d="M414.6,532.3c1-2.1,2.1-3.7,3.5-4.9c1.4-1.2,3.1-1.8,5.1-1.8c0.6,0,1.3,0.1,1.8,0.2c0.6,0.1,1.1,0.4,1.6,0.7l-0.4,4
		c-0.1,0.5-0.4,0.8-0.9,0.8c-0.3,0-0.7-0.1-1.2-0.2s-1.2-0.2-1.8-0.2c-1,0-1.8,0.1-2.6,0.4s-1.4,0.7-2,1.2s-1.1,1.2-1.6,2
		c-0.5,0.8-0.9,1.7-1.3,2.8v19.2h-5.4v-30.4h3.1c0.6,0,1,0.1,1.2,0.3c0.2,0.2,0.4,0.6,0.5,1.1L414.6,532.3z"/>
</g>
</svg>
