<?xml version="1.0" encoding="utf-8"?>
<!-- Generator: Adobe Illustrator 25.2.0, SVG Export Plug-In . SVG Version: 6.00 Build 0)  -->
<svg version="1.1" id="Layer_1" xmlns="http://www.w3.org/2000/svg" xmlns:xlink="http://www.w3.org/1999/xlink" x="0px" y="0px"
	 viewBox="0 0 513 400" style="enable-background:new 0 0 513 400;" xml:space="preserve">
<style type="text/css">
	.st0{fill-rule:evenodd;clip-rule:evenodd;}
	.st1{fill-rule:evenodd;clip-rule:evenodd;fill:none;}
</style>
<path class="st0" d="M177.3,203l-67.2-10.9l42.3-54.7C174.4,156.4,177.1,179.3,177.3,203L177.3,203z M195.7,207
	c0.1-2.4,0.5-6.2,0.5-8.8c0-27.1-8.8-53.4-32.7-75.2l24.9-29.6l38.5,116.8L195.7,207L195.7,207z M343.6,90.7l-2.1-6.5L204.3,84
	l36.5,110l1.6-11.5h-4.2l0.5-7.3H257l-0.5,6.8h-4.7l-1,12.5C250.7,194.6,343.1,91.2,343.6,90.7L343.6,90.7z M404.3,196.4
	c-18.4-14.5-32.8-28.4-43.1-56.2c-16.3,14.7-25.6,36-25.6,57.9c0,43.5,35.7,79,79.5,79c43.8,0,79.4-35.5,79.4-79
	c0-43.5-35.7-79-79.4-79c-14,0-28.2,4-39.8,10.8c7.8,24.5,15.4,37.1,39.3,56.3c5.8,0.2,10.2,4.9,10.2,10.4c0,5.7-4.7,10.4-10.5,10.4
	C408.6,207.1,404.3,202.4,404.3,196.4L404.3,196.4z M174.5,219.8c-9,33.3-41,57.4-76.3,57.4c-43.8,0-79.5-35.5-79.5-79
	c0-43.5,35.7-79,79.5-79c14,0,30.1,3.3,41.9,10.1l-43.1,56.9c-5.3,0.1-9.9,4.8-9.9,10.4c0,5.7,4.7,10.4,10.5,10.4
	c1.6,0,3.3-0.4,4.7-1.1L174.5,219.8L174.5,219.8z M369.6,111.6l-28.1-77.2l8.9-15.1L332.6,0h-38.3l-0.5,11h33.6l6.8,7.3l-7.9,14.1
	l9.9,34.9H198.7l-2.1-6.4c11-1.4,30.1-8.2,34.6-12.1c4.5-3.9,0.6-7.5-4.6-7.7c-27.1-1.1-67.4-3.4-75.1-3.4c-7.7,0-8.4,3.8-3.3,9.4
	c5.1,5.6,9.6,10.6,29,13.6l5.2,14.1L150,114.6c-15.3-9.3-33.9-14.1-51.9-14.1c-54,0-98.1,43.8-98.1,97.6c0,53.7,44.1,97.6,98.1,97.6
	c44.5,0,83.6-30.5,95-72.6l29.9,5.3c1.3,3.5,4.3,6.2,7.8,8.3l-5.3,25.1h-6.8l-0.5,6.8l21.5,1v-7.3h-5.2l6.5-25.1
	c9.7-1.6,14.7-9.8,11.9-18l97.6-109.8l4.4,11.8c-23.7,18.6-37.9,47.1-37.9,76.9c0,53.7,44.1,97.6,98.1,97.6s98.1-43.8,98.1-97.6
	c0-53.7-44.1-97.6-98.1-97.6C399.4,100.6,383.3,104.4,369.6,111.6L369.6,111.6z"/>
<g>
	<rect x="79.6" y="304.6" class="st1" width="558" height="67.4"/>
	<path d="M90.3,348c-2.2-1-4-2.4-5.3-4.2c-1.3-1.8-1.9-3.9-1.9-6.3h7.3c0.2,1.8,0.9,3.3,2.1,4.4c1.3,1.2,3,1.7,5.3,1.7
		c2.4,0,4.2-0.6,5.5-1.7c1.3-1.1,2-2.6,2-4.4c0-1.4-0.4-2.5-1.2-3.4c-0.8-0.9-1.8-1.6-3.1-2c-1.2-0.5-2.9-1-5.1-1.6
		c-2.7-0.7-4.9-1.4-6.6-2.2c-1.7-0.7-3.1-1.9-4.4-3.5c-1.2-1.6-1.8-3.6-1.8-6.2c0-2.4,0.6-4.5,1.8-6.3c1.2-1.8,2.9-3.2,5-4.1
		s4.7-1.4,7.5-1.4c4,0,7.4,1,9.9,3c2.6,2,4,4.8,4.3,8.3h-7.6c-0.1-1.5-0.8-2.8-2.2-3.9s-3.1-1.6-5.2-1.6c-2,0-3.6,0.5-4.8,1.5
		c-1.2,1-1.9,2.4-1.9,4.3c0,1.3,0.4,2.3,1.2,3.1c0.8,0.8,1.8,1.5,3,2c1.2,0.5,2.8,1,4.9,1.6c2.8,0.8,5,1.5,6.8,2.3
		c1.7,0.8,3.2,1.9,4.4,3.5c1.2,1.6,1.8,3.7,1.8,6.3c0,2.1-0.6,4.1-1.7,6c-1.1,1.9-2.8,3.4-5,4.5c-2.2,1.1-4.8,1.7-7.7,1.7
		C95,349.5,92.5,349,90.3,348z"/>
	<path d="M128.3,321.6v18.3c0,1.2,0.3,2.1,0.9,2.7c0.6,0.5,1.6,0.8,3,0.8h4.2v5.7H131c-3.1,0-5.4-0.7-7.1-2.2
		c-1.6-1.4-2.5-3.8-2.5-7v-18.3h-3.9V316h3.9v-8.2h6.9v8.2h8v5.6H128.3z"/>
	<path d="M142.4,323.5c1.4-2.6,3.3-4.5,5.6-6c2.4-1.4,5-2.1,7.9-2.1c2.6,0,4.9,0.5,6.8,1.5c1.9,1,3.5,2.3,4.6,3.8V316h6.9V349h-6.9
		v-4.9c-1.2,1.6-2.7,2.9-4.7,3.9c-2,1-4.3,1.6-6.8,1.6c-2.8,0-5.4-0.7-7.8-2.2c-2.4-1.5-4.2-3.5-5.6-6.1s-2.1-5.6-2.1-8.9
		S141.1,326.1,142.4,323.5z M166,326.5c-0.9-1.7-2.2-3-3.7-3.8c-1.5-0.9-3.2-1.3-4.9-1.3c-1.8,0-3.4,0.4-4.9,1.3
		c-1.5,0.9-2.8,2.1-3.7,3.8c-0.9,1.7-1.4,3.6-1.4,5.9c0,2.3,0.5,4.3,1.4,6c0.9,1.7,2.2,3,3.7,3.9c1.5,0.9,3.2,1.3,4.9,1.3
		c1.8,0,3.4-0.4,4.9-1.3c1.5-0.9,2.7-2.2,3.7-3.9c0.9-1.7,1.4-3.7,1.4-6C167.4,330.2,167,328.2,166,326.5z"/>
	<path d="M188.3,348.2c-2.1-0.9-3.7-2.2-4.9-3.8c-1.2-1.6-1.8-3.4-1.9-5.4h7.1c0.1,1.4,0.8,2.6,2,3.5c1.2,0.9,2.7,1.4,4.6,1.4
		c1.9,0,3.4-0.4,4.5-1.1c1.1-0.7,1.6-1.7,1.6-2.8c0-1.2-0.6-2.2-1.8-2.8c-1.2-0.6-3.1-1.3-5.6-2c-2.5-0.7-4.5-1.3-6.1-2
		c-1.6-0.6-2.9-1.6-4-2.9c-1.1-1.3-1.7-3.1-1.7-5.2c0-1.8,0.5-3.4,1.6-4.8c1-1.5,2.5-2.6,4.5-3.5c1.9-0.8,4.2-1.3,6.7-1.3
		c3.8,0,6.8,1,9.1,2.8c2.3,1.9,3.5,4.5,3.7,7.8h-6.8c-0.1-1.5-0.7-2.7-1.8-3.5s-2.5-1.3-4.4-1.3c-1.8,0-3.2,0.3-4.1,1
		c-1,0.7-1.4,1.6-1.4,2.7c0,0.9,0.3,1.6,1,2.2c0.6,0.6,1.4,1.1,2.3,1.4c0.9,0.3,2.3,0.8,4.1,1.3c2.4,0.6,4.4,1.3,5.9,2
		c1.5,0.7,2.9,1.6,4,2.9c1.1,1.3,1.7,3,1.7,5.1c0,1.9-0.5,3.6-1.6,5c-1,1.5-2.5,2.6-4.4,3.5c-1.9,0.8-4.1,1.3-6.7,1.3
		C192.7,349.6,190.4,349.1,188.3,348.2z"/>
	<path d="M239.2,317.1c2,1.1,3.5,2.7,4.7,4.8c1.1,2.1,1.7,4.7,1.7,7.7V349h-6.8v-18.5c0-3-0.7-5.2-2.2-6.8c-1.5-1.6-3.5-2.4-6.1-2.4
		c-2.6,0-4.6,0.8-6.1,2.4c-1.5,1.6-2.2,3.9-2.2,6.8V349h-6.8v-44.4h6.8v15.2c1.2-1.4,2.6-2.5,4.4-3.2c1.8-0.8,3.7-1.1,5.9-1.1
		C235,315.4,237.2,316,239.2,317.1z"/>
	<path d="M293.6,317.1c2.1,1.1,3.7,2.7,4.8,4.8c1.2,2.1,1.7,4.7,1.7,7.7V349h-6.8v-18.5c0-3-0.7-5.2-2.2-6.8
		c-1.5-1.6-3.5-2.4-6.1-2.4c-2.6,0-4.6,0.8-6.1,2.4c-1.5,1.6-2.2,3.9-2.2,6.8V349h-6.8V316h6.8v3.8c1.1-1.4,2.5-2.4,4.3-3.2
		c1.7-0.8,3.6-1.1,5.6-1.1C289.2,315.4,291.5,316,293.6,317.1z"/>
	<path d="M346.1,349l-9.6-16.7h-5.2V349h-6.8v-41.7h14.4c3.2,0,5.9,0.6,8.1,1.7c2.2,1.1,3.9,2.6,5,4.5s1.7,4,1.7,6.3
		c0,2.7-0.8,5.2-2.4,7.4c-1.6,2.2-4,3.7-7.3,4.5l10.3,17.3H346.1z M331.3,326.9h7.6c2.6,0,4.5-0.6,5.8-1.9c1.3-1.3,1.9-3,1.9-5.2
		s-0.6-3.8-1.9-5.1c-1.3-1.2-3.2-1.8-5.8-1.8h-7.6V326.9z"/>
	<path d="M362.7,310.3c-0.8-0.8-1.3-1.9-1.3-3.1c0-1.2,0.4-2.3,1.3-3.1c0.8-0.8,1.9-1.3,3.1-1.3c1.2,0,2.2,0.4,3.1,1.3
		c0.8,0.8,1.3,1.9,1.3,3.1c0,1.2-0.4,2.3-1.3,3.1s-1.9,1.3-3.1,1.3C364.6,311.6,363.6,311.2,362.7,310.3z M369.2,316V349h-6.8V316
		H369.2z"/>
	<path d="M378,323.5c1.4-2.6,3.3-4.5,5.6-6s5-2.1,8-2.1c2.2,0,4.3,0.5,6.4,1.4c2.1,0.9,3.8,2.2,5,3.8v-16h6.9V349H403v-5
		c-1.1,1.6-2.7,2.9-4.7,4c-2,1-4.3,1.6-6.8,1.6c-2.9,0-5.5-0.7-7.9-2.2c-2.4-1.5-4.3-3.5-5.6-6.1s-2.1-5.6-2.1-8.9
		S376.6,326.1,378,323.5z M401.6,326.5c-0.9-1.7-2.2-3-3.7-3.8c-1.5-0.9-3.2-1.3-4.9-1.3s-3.4,0.4-4.9,1.3c-1.5,0.9-2.8,2.1-3.7,3.8
		c-0.9,1.7-1.4,3.6-1.4,5.9c0,2.3,0.5,4.3,1.4,6c0.9,1.7,2.2,3,3.7,3.9c1.5,0.9,3.2,1.3,4.9,1.3c1.8,0,3.4-0.4,4.9-1.3
		c1.5-0.9,2.8-2.2,3.7-3.9c0.9-1.7,1.4-3.7,1.4-6C403,330.2,402.5,328.2,401.6,326.5z"/>
	<path d="M448.9,335.1h-25.3c0.2,2.6,1.2,4.8,2.9,6.4c1.8,1.6,3.9,2.4,6.5,2.4c3.7,0,6.3-1.5,7.8-4.6h7.4c-1,3-2.8,5.5-5.4,7.5
		c-2.6,1.9-5.9,2.9-9.8,2.9c-3.2,0-6-0.7-8.5-2.1c-2.5-1.4-4.5-3.4-5.9-6s-2.1-5.6-2.1-9s0.7-6.4,2.1-9s3.3-4.6,5.8-6
		c2.5-1.4,5.4-2.1,8.6-2.1c3.1,0,5.9,0.7,8.3,2c2.4,1.4,4.3,3.3,5.7,5.7c1.4,2.5,2,5.3,2,8.5C449.2,332.9,449.1,334.1,448.9,335.1z
		 M442,329.5c0-2.5-0.9-4.5-2.7-6.1c-1.8-1.5-3.9-2.3-6.5-2.3c-2.4,0-4.4,0.8-6.1,2.2c-1.7,1.5-2.7,3.5-3,6.1H442z"/>
</g>
</svg>
